<svg viewBox="0 0 24 24" xmlns="http://www.w3.org/2000/svg" aria-hidden="true">
  <g fill="none" stroke="currentColor" stroke-linecap="round" stroke-linejoin="round" stroke-width="1.7">
    <circle cx="12" cy="4.1" r="1.8"/>
    <path d="M8.9 8.6a3.1 3.1 0 0 1 6.2 0"/>
    <circle cx="19.2" cy="14.2" r="1.8"/>
    <path d="M16.2 19a3 3 0 0 1 6 0"/>
    <circle cx="4.8" cy="14.2" r="1.8"/>
    <path d="M1.8 19a3 3 0 0 1 6 0"/>
    <path d="M2.7 10.8a9.2 9.2 0 0 1 4.6-6.9"/>
    <path d="M16.7 3.9a9.2 9.2 0 0 1 4.6 6.9"/>
    <path d="M8.5 21.3a9.4 9.4 0 0 0 7 0"/>
  </g>
</svg>
