<svg xmlns="http://www.w3.org/2000/svg" width="250" height="104" fill="none" viewBox="0 0 250 104">

  <path d="m250 0h-250v103.7h250v-103.7z" fill="#FEFFFF" fill-opacity=".6"></path>
  <path d="m245.3 47.22c3.27-4.21 4.3-7.05 4.58-8.26l-0.1-3.12c-1.98 4.15-3.63 7-6.66 11.21-7.39 10.42-14.72 14.31-16.21 15.1 1.76-2.24 7.89-7.68 11.1-10.93 10.95-11.09 11.87-18.52 11.97-21.75 0.1-3.42-3.82-6.04-3.82-6.04-3.1 0.52-2.68 6.56-0.31 8.92l-0.55 2.71-2.35 2.93 0.25 1.72c2.17-2.36 3.73-5.9 4.35-6.18 0.45 2.58-1.63 8.74-8.5 16.55-6.19 7.08-12.55 13.64-23.02 14.16-11.33 0.6-23.12-5-28.46-8.19-2.6-1.49-5.03-3.84-7.62-6.41 5.25 2.57 9.02 3.52 14.73 5.43 9.72 3.35 15.43 2.64 20.02 0.98 6.4-2.24 5.61-8.64 1.56-9.78-2.86-0.83-4.18 1.34-3.62 3.85 0.68 3.1 4.16 1.72 4.16 0-1.03 0.52-2.23 0.6-2.5-0.86-0.46-2.45 2.46-2.9 3.86-1.16 2.11 2.81-0.11 6.64-6.2 7.24-8.9 0.85-19.2-4.8-26.86-12.36 3.76 2.1 10.71 4.13 17.96 4.13 7.87 0 7.32-6.48 4.61-8.05-1.76-1.02-4.65-0.19-3.9-3.93 3.17-1.88 5.09-4.91 3.64-9.98-0.66-2.5-1.94-4.61-2.61-4.69-1.43-0.17-5.03 7.79-1.9 13.35 0.87 1.65 2.01 1.87 1.83 3.12-0.16 1.12-2.47 2.05-4.43 1.89-5.52-0.41-11.02-3.54-14.3-6.38 3.92 2.48 7.61 2.79 9.83-0.13 1.35-1.88 0.57-2.32-0.5-3.43-2.45-2.67-6.55-1.06-8.28 0.92-1.13 1.31-1.28 2.61-2.31 2.92-2.23-1.48-6.77-3.81-13.53-5.14 2.75-0.54 5.85-1.68 6.24-6.4 0.23-2.91-0.28-2.52-0.98-2.67-4.34-0.13-8.06 6.31-7.96 7.93l0.72 2.48-4.12-0.7c-2.16-0.44-12.41-1.13-20.36 2.11-2.79 1.14-8.73 4.48-11.87 7.43l-2.16 0.71c3.35-3.34 8.72-7.38 15.45-9.55 4.1-1.31 5.85-2.51 5.34-4.16 4.49 0.75 9.62-1.98 11-7.92l-0.87-1.88c-3-1.74-5.64-0.08-7.51 1.79-2.11 2.11-4.33 6.54-3.73 8.57-1.03 1.38-4.74 2.86-7 3.69-3.53 1.37-8.28 3.25-13.38 8.23-3.91 3.88-7.77 5.77-14.8 10.99 4.88-6.57 1.58-4.17 8.2-15.61 3.37-1.31 10.21-1.31 12.27-5.51l-0.24-2.09c-2.76-1.95-7.35-0.9-10.1 3.98-1.1 1.86-3.28 5.62-4.31 6.76 0.86-2.95 0.98-4.05-1.04-6.73-1.92-2.67-0.04-5.12 0-5.53-3.72-0.83-3.1 3.28-2.82 5.42 0.31 2.45 2.56 3.9 2.63 4.93 0.09 1.63-2.7 7.48-6.12 13.18-5.3 7.32-13.25 15.99-25.91 16.4-9.37 0.31-19.56-3.42-25.96-7.72-5.5-3.64-10.02-8.62-19.22-13.44-6.69-3.64-11.53-4.22-15.58-4.59-2.67-1.39-5.12-0.64-6.58-0.56-4.73 0.27-8.31 0.79-14.68 3.9-1.9 1-4.24 2.69-5.75 4.09v2.06c2.44-3.04 7.15-7.16 14.77-8.35 8.03-1.28 11.98 0.69 12.44 4.42-0.27 3.81 1 7.68 3.94 10.13 2.56 2.2 4.88 3.31 7.54 3.56 0.62 0.52 1.4 0 1.4-0.8-0.56-3.47-1.33-7.77-3.4-10.91l-1.53-1.12c2.22-0.7 7.11 1.26 12.64 5.3 3.36 2.56 4.79 3.92 6.13 7.56 1.88 5.46 9.79 10.05 16.11 12.15 5.08 2.11 9.75 6.95 12.06 13 3.53 9.48-1.63 16.61-7.52 16.26-3.95-0.25-6.89-4.26-5.67-6.32 1.03-1.84 2.68-2.73 4.15-2.65 2.25 0.12 2.63 1.94 2.08 3.68-0.56-0.36-1.25-1.03-1.93-0.32-1.03 1.05 0.49 2.65 2.18 2.49 2.75-0.26 3.08-5.16 0.62-6.4-3.11-1.5-7.81 0.91-8.31 5-0.46 3.73 3.54 7.34 8 6.06 7.19-2.11 9.9-9.76 7.7-16.9-1.76-5.59-3.74-7.74-7.83-11.83 3.32 0.08 7.48 2.43 9.73 3.89 3.61 2.35 4.37 3.06 4.29 4.52-0.78 1.82-2.43 6.44-0.11 9.11l1.6 0.52c2.52-1.16 3.02-2.31 2.75-5.26l-1.96-4.87 0.27-1.14 5.75 4.11 7.5 0.83 3.48 2.95c-1.11 2.83 1.09 6.59 2.33 7.71l2.55 1.23 3.11-1.37 1.03-2.67-0.87-1.06c2.22-2.45-1.05-4.62-3.62-4.48l-6.17-1.05-1.87-2.09c2.3 0 5.4-0.85 6.94-1.9 2.59-1.74 4.99-1.87 7.1-2.94l1.76-2.67-0.95-1.24c-3.61-0.25-5.11 2.57-6.06 4.64-1.44 1.84-4.46 2.78-7.36 2.78-3.79 0-6.39 0.43-9.7-1.81-2.2-1.47-4.83-2.6-7.82-3.99 5.75 0.83 13.06 0.58 16.6-1.16 3.72-1.74 4.5-3.48 7.85-4.45 3.27-0.97 7.88-0.61 12.33 0 7.64 1.05 8.64 3.06 11.58 2.54l2.04-2.25c5.5 1.5 8.6 7.89 8.04 13.76-0.51 5.61-4.01 7.07-4.93 7.65l1.11 1.11 2.75-0.97c2.06-1.88 2.45-3.99 2.18-8.23-0.46-6.97-5.03-12.77-10.37-14.07l-2.86-0.71-0.23-1.39c4.34-1.56 7.66-1.42 13.99 0.34 7.5 2.24 12.61 7.57 16.76 10.68 5.17 3.88 5.81 11.96 3.88 15.92-1.76 3.81-6.1 6.51-7.24 6.43-3.96-0.25-4.99-3.34-4.56-5.08 0.56-2.24 3.41-2.65 3.58-0.2 0.08 0.91-0.48 1.21-0.78 1.57 2.57 0.62 3.25-3.21 1.16-4.29-3.49-1.82-6.84 1.76-5.76 5.15 1.28 4.13 5.28 4.67 8 2.85 4.41-2.82 7.91-7.25 7.12-14.94l0.56-1.96 3.27 4.75c2.56 1.88 4.4 1.95 6.63 0.98l2.57-0.52 1.21-2.32-2.45-3.11c-3.19-4.13-7.85-4.03-10.3-3.31l-2.86-2.95-2.26-4.68c3.48 2.74 7.97 3.69 10.76 0.86l1.76-2.92c-2.42-4.86-7.19-5.55-11.99-2.52l-2.66 1.46c-3.72-2.93-10.76-7.74-12.52-8.8-6.4-3.83-13.87-4.16-20.48-4.03l-1.76-0.52 6.94-4.73c1.96-1.38 3.45-4.56 0.45-4.82l-2.69 0.26c-3.64 2.45-3.19 6.36-8.81 8.93-3.48 1.55-9.32 3.56-12.82 4.32 6.17-5.25 9.64-11.4 14.49-17.15 2.06-2.66 6.65-4.14 14.65-3.89 8.47 0.25 8.89 4.01 8.43 6.56 0.78 4.66 2.55 8.2 6.26 10.44l5.22 1.21 1.53-0.73-1.28-6.97c-0.95-6.32-6.74-8.68-9.77-9.39 5.82 0.07 15.36 5.37 22.9 11.3 1.76 1.46 1.65 2.49 1.93 3.95 1.37 5.72 9.38 12.12 18.49 15.07 5.14 3.21 10.65 8.94 10.75 17.83 0.06 6.25-4.46 10.85-8.87 10.52-4.59-0.33-5.72-3.68-4.9-5.56 0.95-2.36 3.06-2.94 4.31-2.63 1.98 0.52 2.25 1.93 1.12 2.9-0.95-0.59-1.51-0.63-1.82 0.15-0.46 1.23 0.65 2.54 2.18 2.18 3.21-0.83 3.02-5.16 0.42-6.44-3.71-1.78-8.01 2.13-8.17 5.43-0.16 3.64 3.11 5.67 6.44 5.26 5.85-0.69 10.2-6.24 9.64-13.57-0.68-8.04-4.21-11.09-8-15 3.61 0.08 7.81 2.86 9.65 4.09l5.5 3.64c-1.28 2.57-3.04 6.33-1.9 9.17l1.53 1.74 1.76-0.66c2.35-2.45 1.4-5.56 0.69-7.9l0.56-1.46 6.09 4.21 5.95 1.31 4.13 2.11c0.08 2.83 0.67 5.11 2.79 7.43l2 0.71 3.45-1.46 2.03-3.76-2.23-3.11-4.03-1.06-4.09-0.83-2.15-2.11c2.06-0.41 4.48-1.98 5.54-4.19l1.37-1.57c1.45 1.65 4.81 1.76 6.84 0.3l2.03-2.67-0.36-1.49c-3.36-1.05-5.96 1.44-7.52 4.44-1.65 2.24-2.89 3.1-6.25 3.35l-2.15-0.71c0.95-1.05 2.56-2.71 1.38-4.12-2.86-0.52-4.46 1.3-5.38 3.68-1.45 1.05-5.16 0.13-7.32-1.1-3.62-1.97-7.82-3.79-13.63-6.24l-4.89-2.67c6.79 1.31 12.5 4.23 21.44 3.62 4.84-0.33 9.27-3.28 11.8-5.02 3.5-2.35 9.13-2.69 15.27-1.39v-1.98c-5.32-1.57-12.95-2.1-21.15-0.43 2.98-1.82 9.48-8.89 16.53-17.68z" fill="#8BAE95" fill-opacity=".85"></path>
  <path d="m0.02 31.81c2.16-0.97 4.08-1.49 5.91-0.88 2.26 0.79 4.32-1.88 4.78-4.12 0.55-2.45-0.48-2.86-2.59-2.6-3.92 0.52-5.68 2.97-8.12 5.42l0.02 2.18z" fill="#8BAE95" fill-opacity=".85"></path>
  <path d="m0.02 24.76c2.27-1.84 6.15-4.57 9.42-5.62 6.32-2.11 13.78-5.36 14.47-10.08 0.69-4.18-2.64-6.73-4.97-6.45-3.99 0.47-5.43 4.11-4.75 6.31 0.87 2.83 4.59 2.19 5.19 0.49l-0.56-1.88c-0.87 1.65-2.11 2.34-3.06 1.03-1.14-1.74 0.85-4.95 3.85-4.64 3.36 0.35 4.23 3.3 3.77 5.7-1.08 5.16-9.36 7.92-13.36 9.31s-6.73 3.78-10 6.57v-0.74z" fill="#8BAE95" fill-opacity=".65"></path>
  <path d="m0.21 17.71c0.3-3.17 1.99-5.51 3.1-5.7 2.02-0.35 4.01 2.86 3.23 5.1-0.78 2.34-3.42 5-5.26 6.74l-1.07-1.24v-4.9z" fill="#8BAE95" fill-opacity=".65"></path>
  <path d="m25.91 23.37c0.95-3.54 2.21-7.34 4.77-8.31 2.33-0.97 5-1.25 5.87-1.15 1.53 0.2 1.07 0.82 1.92 1.79-1.65 5.25-4.65 9.17-11.39 10.22l-1.17-2.55z" fill="#8BAE95" fill-opacity=".85"></path>
  <path d="m43.7 27.06c0.95-4.31 3.61-7.14 5.77-7.73 1.66-0.52 2.76-0.82 3.32-0.21s-0.12 4.94-2.35 7.61c-1.53 1.97-4.32 2.49-5.29 2.17l-1.45-1.84z" fill="#8BAE95" fill-opacity=".85"></path>
  <path d="m59.44 34.52c2.79-3.28 4.37-4.48 6.67-4.48 2.6 0 4.07 0.97 5.31 2.93l-0.27 1.74c-2.33 3.11-5.84 3.28-11.34 1.29l-0.37-1.48z" fill="#8BAE95" fill-opacity=".85"></path>
  <path d="m48.32 36.7c1.84-3.24 5.29-2.64 7.35-0.99 2.46 2 3.24 4.2 1.99 7.71l-2.45 1.53c-4.49-0.71-6.52-3.98-6.89-8.25z" fill="#8BAE95" fill-opacity=".85"></path>
  <path d="m39.73 68.01c2.93-0.21 3.49-1.8 6.25-1.99 2.93-0.2 3.71 1.3 6.28 1.71l3 1.82-0.64 2.56c-2.69 3.21-7.89 3.59-11.4 0.53l-3.49-4.63z" fill="#8BAE95" fill-opacity=".85"></path>
  <path d="m46.36 81.02c1.76-2.11 3.68-3.05 6.4-2.46 2.36 0.56 4.25 2.65 6.31 5.25l1.69 2.45-1.44 2.35-2.57 0.25c-3.64-0.16-6.34-2.73-9.36-6.05l-1.03-1.79z" fill="#8BAE95" fill-opacity=".85"></path>
  <path d="m97.32 20.08c-0.95-3.34-0.39-7.81 1.97-10.83 1.43-1.96 4.43-3.04 5.89-3.35l1.46 0.52c0.39 4.86-2.61 10.38-7.35 12.49l-1.97 1.17z" fill="#8BAE95" fill-opacity=".85"></path>
  <path d="m124.2 22.05c-1.35-3.84-0.56-6.64 1.19-8.6 1.88-2.24 3.72-0.58 4.59 0.47 1.11 2.24 0 7.1-2.79 9.48l-2.99-1.35z" fill="#8BAE95" fill-opacity=".85"></path>
  <path d="m222.3 20.03c-1.53-4.92-0.09-8.98 3.03-12.37 1.88-2.04 3.64-1.68 5.6-2.04l1.63 0.97c-0.63 6.02-2.77 9.24-7.33 12.3l-2.93 1.14z" fill="#8BAE95" fill-opacity=".85"></path>
  <path d="m77.91 27.66c0.51-3.68 1.71-6.64 2.74-7.66 2.06 0.71 3.82 4.16 4.09 7.11 0.23 2.83-1.3 5-3.43 7-1.25 1.22-0.4 3.05 0.85 2.68 1.96-0.61 3.1-1.18 3.3 0.52 0.27 1.88-1.81 2.85-3.75 2.85-5.58 0-10.28-1.39-15.62-4.31l-1.28 1.16c5.5 2.95 10.6 3.92 15.27 3.87 4.1-0.05 5.76-3 4.63-5.11-0.95-1.88-3.59-1.46-4.16-2.21-0.49-0.69 0.88-2.43 2.06-3.96 1.11-1.49-0.55-3.34-4.7-1.94z" fill="#8BAE95" fill-opacity=".85"></path>
  <path d="m100 37.51-1.21 3.11c0.46 3.29 1.99 5.49 4.81 7.47l1.63-1.78c1.85-4.5-0.03-7.78-5.23-8.8z" fill="#8BAE95" fill-opacity=".85"></path>
  <path d="m0.02 63.21c6.54-1.13 11.24-1.65 16.4-0.68 10.39 2.11 17.66 5.62 20.26 13.51l1.24-1.31c-1.53-6.97-9.4-13.24-22.81-14.62-5-0.5-9.02-0.1-15.11 1.05l0.02 2.05z" fill="#8BAE95" fill-opacity=".65"></path>
  <path d="m0.02 58.05c5.1-0.89 7.16-1.86 9.78-4.81 1.92-1.43 5.11-2.73 5.03-4.97-0.12-1.79-2.81-2.04-4.42-1.63-2.4 1.28-3.89 4.92-6.35 7.75l-4.04 1.62v2.04z" fill="#8BAE95" fill-opacity=".85"></path>
  <path d="m1.02 79.88c1.58-2.73 2.19-6.08 4.07-7.54 1.43-1.16 2.83-0.27 3.97 1.19l0.08 1.53c-2.06 2.72-4.22 3.38-7.62 3.85l-0.5 0.97z" fill="#8BAE95" fill-opacity=".85"></path>
  <path d="m7.05 77.63c2.16-0.31 4.36-0.34 5.75-1.57 1.11-0.97 1.77-2.04 1.53-2.5-0.46-0.83-4.22-0.31-5.71 1.51l-2.11 2.04 0.54 0.52z" fill="#8BAE95" fill-opacity=".85"></path>
  <path d="m33.67 67.91 1.54-2.24 1.92 2.56c1.03 2.11 0.92 3.85-0.11 5.99l-1.29 1.39-2.02-0.55c-1.88-2-1.69-4.64-0.04-7.15z" fill="#8BAE95" fill-opacity=".85"></path>
  <path d="m158.1 67.16 1.53-1.05 2.28 2.95c1.11 2.14 0.81 3.96-0.56 6.21l-2.13 0.83-2.03-1.39c-1.85-2.45-1.17-5.05 0.91-7.55z" fill="#8BAE95" fill-opacity=".85"></path>
  <path d="m173.3 35.61c2.66-2.24 5.35-1.85 7.64 0 2.79 2.24 3.02 3.98 2.34 6.99l-2.03 1.31c-5.41-0.59-7.09-3.9-7.95-8.3z" fill="#8BAE95" fill-opacity=".85"></path>
  <path d="m225.1 37.77-1.35 2.45c-0.39 3.03 1.47 5.86 4.03 7.94l1.99-0.94c2.06-3.21 2.38-8.13-4.67-9.45z" fill="#8BAE95" fill-opacity=".85"></path>
  <path d="m241.5 12.14-2.56 1.31-0.24 2.45 1.39 1.53 1.76 0.19c1.46-0.76 2.85-2.54 2.66-3.81-0.31-1.5-1.71-1.93-3.01-1.67z" fill="#CAA570" stroke="#88816D" stroke-miterlimit="10" stroke-width=".25"></path>
  <path d="m187.2 15.9-1.21 1.57v2.14l1.39 1.36 2.07-0.26 3.1-1.46 0.23-1.54-1.65-0.6-1.53 0.68-0.31-2.01-2.09 0.12z" fill="#CAA570" stroke="#88816D" stroke-miterlimit="10" stroke-width=".25"></path>
  <path d="m115.3 12.4-0.95 0.83-0.39 2.23 1.53 1.75 1.66-0.18c1.37-1.31 2.15-2.97 1.5-4.02-0.87-1.46-1.98-1-3.35-0.61z" fill="#CAA570" stroke="#88816D" stroke-miterlimit="10" stroke-width=".25"></path>
  <path d="m61.59 16.42 0.12 2.34 1.43 1.85 2.13 0.28 2.49-1.08 0.23-1.74-1.65-0.83-1.11 0.87-0.49-2.45-2.06-0.35-1.09 1.11z" fill="#CAA570" stroke="#88816D" stroke-miterlimit="10" stroke-width=".25"></path>
  <path d="m10.28 65.4 2.06-1.74 2.23-0.15 0.78 1.31-0.34 1.81-1.62 0.44 0.87 1.13-0.64 1.62-2.15 0.8-1.66-1.82c-0.6-1.19-0.48-2.33 0.47-3.4z" fill="#CAA570" stroke="#88816D" stroke-miterlimit="10" stroke-width=".25"></path>
  <path d="m1.98 87.79-0.95 0.86 0.39 1.39 1.59 0.76 1.62-0.34 1.25-1.31-0.08-1.36-1.53-1.05-2.29 1.05z" fill="#CAA570" stroke="#88816D" stroke-miterlimit="10" stroke-width=".25"></path>
  <path d="m17.32 88.75 1.11-1.74 1.76-0.52 2.12 0.83 0.56 1.66-0.68 1.64-2.13 0.71-2.45-1.52-0.29-1.06z" fill="#CAA570" stroke="#88816D" stroke-miterlimit="10" stroke-width=".25"></path>
  <path d="m66.6 49.21 0.46-0.8 1.85-0.15 1.37 0.44 1.37 1.31-0.08 1.66-3.28 1.24-1.85-1.39 0.16-2.31z" fill="#CAA570" stroke="#88816D" stroke-miterlimit="10" stroke-width=".25"></path>
  <path d="m135.1 64.59-1.37 1.31 0.78 2.25-0.78 1.16 0.87 1.74 2.46-0.87 2.52-2.45 0.66-2.61c-1.84-1.88-3.27-1.52-5.14-0.53z" fill="#CAA570" stroke="#88816D" stroke-miterlimit="10" stroke-width=".25"></path>
  <path d="m110.8 67.7-1.53 0.97-0.15 2.01 0.95 1.31 2.46-0.31 2.56-1.46 0.56-1.82c-1.11-1.39-2.77-1.49-4.85-0.7z" fill="#CAA570" stroke="#88816D" stroke-miterlimit="10" stroke-width=".25"></path>
  <path d="m132.7 75.07-6.21 3.35v-2.42c0.95-2.73 3.61-4.41 5.57-3.8l3.42 1.19 3.5 1.68c-1.53 1.97-3.3 2.56-6.28 0z" fill="#8BAE95" fill-opacity=".85"></path>
  <path d="m123.1 82.9c-2.46-0.97-4.61-0.84-6.94-0.48 3.95 0 7.59 1.53 9.43 4.36l0.98 0.83 0.95-1.15c-0.69-1.34-1.99-2.65-4.42-3.56z" fill="#8BAE95" fill-opacity=".85"></path>
  <path d="m126.7 87.52-0.68 1.15 0.55 1.66 1.85 0.19 1.63-0.9 0.49-1.84-1.53-1.12-2.31 0.86z" fill="#CAA570" stroke="#88816D" stroke-miterlimit="10" stroke-width=".25"></path>
  <path d="m143.5 86.91-1.03 1.81 0.78 1.39 2.69 0.51 1.84-1 0.46-2.1-1.76-1.46-2.98 0.85z" fill="#CAA570" stroke="#88816D" stroke-miterlimit="10" stroke-width=".25"></path>
  <path d="m191.2 49.13 0.08-0.87 2.13-0.15 2.09 1.02 1.03 1.31-0.46 1.31-3.61 1.16-1.66-1.97 0.4-1.81z" fill="#CAA570" stroke="#88816D" stroke-miterlimit="10" stroke-width=".25"></path>
  <path d="m235.9 67.57-1.24 1.15v1.88l0.95 1.39 2.33-0.23 2.32-1.66 0.39-1.95c-1.44-1.52-2.91-1.39-4.75-0.58z" fill="#CAA570" stroke="#88816D" stroke-miterlimit="10" stroke-width=".25"></path>
  <path d="m244.5 82.26 4.88 1.46 0.44 1.53" stroke="#8BAE95" stroke-miterlimit="10" stroke-opacity=".85" stroke-width=".5"></path>
  <path d="m144 9.01c-1.84 1.98-4.57 0.17-4.57-1.87 0-3.27 2.19-4.76 4.88-4.43 3.71 0.44 5.24 3.96 4.13 7.62-1.56 5.5-8.54 7.38-13.17 8.88-6.36 2.11-11.2 5.83-15.35 13.6-2.66 4.99-2.84 9.28-9.3 15.35" stroke="#8BAE95" stroke-miterlimit="10" stroke-opacity=".85" stroke-width=".75"></path>
  <path d="m110.1 38.09c1.76-7.77-0.93-13.33-5.34-15.07-6.91-2.76-14 1.74-14.68 5.7-0.69 3.98 1.71 6.74 4.84 6.74 3.02 0 3.96-1.82 3.73-4.07-0.31-2.24-3-2.68-3.46-1.45" stroke="#8BAE95" stroke-miterlimit="10" stroke-opacity=".85" stroke-width=".75"></path>
  <path d="m115.4 17.03c-3.12 2.11-5.98 9.33-6.31 13.16" stroke="#8BAE95" stroke-miterlimit="10" stroke-opacity=".85" stroke-width=".75"></path>
  <path d="m190 18.38c-3.4 7.43-8.25 10.23-14.1 10.84" stroke="#8BAE95" stroke-miterlimit="10" stroke-opacity=".85" stroke-width=".75"></path>
  <path d="m239 16.42c-4.13 4.29-3.94 11.87-3.94 16.79 0 7.81-2.92 12.87-5.28 15.7-5.16 6.33-12.1 9.54-17.92 9.54" stroke="#8BAE95" stroke-miterlimit="10" stroke-opacity=".85" stroke-width=".75"></path>
  <path d="m224.7 22.05c6.58-0.9 11.38 5.06 10.82 11.56" stroke="#8BAE95" stroke-miterlimit="10" stroke-opacity=".85" stroke-width=".75"></path>
  <path d="m216 32.81c1.66 2.67 6.15 1.8 7.61-0.4 1.24-1.97-0.51-4.42-2.17-3.7" stroke="#8BAE95" stroke-miterlimit="10" stroke-opacity=".85" stroke-width=".75"></path>
  <path d="m8.88 37.72c6.24-5.46 12.41-9.01 22.83-9.63 7.23-0.48 13.28 0.42 18.74 4.8" stroke="#8BAE95" stroke-miterlimit="10" stroke-opacity=".85" stroke-width="1.06"></path>
  <path d="m90.35 45.22c2.76-1.46 4.29 0.74 3.98 3.05-0.56 3.52-4.62 3.2-6.09 1.16-1.27-1.88-0.32-5.52 1.94-5.52" stroke="#8BAE95" stroke-miterlimit="10" stroke-opacity=".65" stroke-width=".75"></path>
  <path d="m32.63 43.24-1.61 2.52 1.68 2.52 1.53-1.23 0.24-1.92-1.84-1.89z" fill="#8BAE95" fill-opacity=".65"></path>
</svg>